<?xml version="1.0"?>
<svg xmlns:rdf="http://www.w3.org/1999/02/22-rdf-syntax-ns#" xmlns="http://www.w3.org/2000/svg" xmlns:cc="http://creativecommons.org/ns#" xmlns:xlink="http://www.w3.org/1999/xlink" xmlns:dc="http://purl.org/dc/elements/1.1/" id="svg1" height="400pt" width="400pt">
 <defs id="defs3">
  <radialGradient id="radialGradient2426" gradientUnits="userSpaceOnUse" cy="288.71" cx="146.26" gradientTransform="matrix(1.1302 0 0 1.1339 -10.158 -66)" r="46.654">
   <stop id="stop856" stop-color="#ff0004" stop-opacity=".65833" offset="0"/>
   <stop id="stop857" stop-color="#e48e17" stop-opacity="0" offset="1"/>
  </radialGradient>
  <filter id="filter3270" y="-.11217" width="1.2251" x="-.11255" height="1.2243">
   <feGaussianBlur id="feGaussianBlur3272" stdDeviation="5.2084911"/>
  </filter>
  <filter id="filter3294">
   <feGaussianBlur id="feGaussianBlur3296" stdDeviation="2.7532135"/>
  </filter>
 </defs>
 <path id="path899" stroke-linejoin="round" d="m311.65 46.41c-25.18 0-45.62 19.32-45.62 43.125s20.44 43.125 45.62 43.125c25.19 0 45.63-19.32 45.63-43.125s-20.44-43.125-45.63-43.125z" fill-rule="evenodd" stroke="#000" stroke-width="5" fill="#7f7f7f"/>
 <path id="path875" stroke-linejoin="round" d="m347.71 87.416c0 23.804-20.44 43.124-45.62 43.124-25.19 0-45.63-19.32-45.63-43.124 0-23.805 20.44-43.125 45.63-43.125 25.18 0 45.62 19.32 45.62 43.125z" fill-rule="evenodd" stroke="#000" stroke-width="10" fill="#7f7f7f"/>
 <path id="path881" stroke-linejoin="round" d="m320.01 118.34h-3.74l-0.02-9.53c-1.92-0.1-3.78-0.4-5.58-0.88-1.8-0.49-3.55-1.16-5.26-2.03v-8.29c1.77 1.245 3.55 2.205 5.35 2.88 1.81 0.65 3.65 1.02 5.51 1.11v-9.844l-0.76-0.19c-3.67-0.886-6.29-2.279-7.84-4.178-1.54-1.899-2.31-4.631-2.31-8.196 0-3.777 0.94-6.72 2.82-8.83 1.89-2.131 4.58-3.291 8.07-3.481l0.02-7.311h3.74v7.184c1.53 0.169 3.07 0.433 4.61 0.791 1.54 0.359 3.08 0.823 4.63 1.393v8.038c-1.53-0.886-3.07-1.572-4.61-2.057-1.53-0.506-3.08-0.812-4.63-0.918v9.083l0.74 0.19c3.9 0.844 6.64 2.258 8.2 4.241 1.59 1.962 2.38 4.874 2.38 8.735 0 3.88-0.94 6.87-2.81 8.96-1.88 2.06-4.72 3.25-8.51 3.54v9.59zm-3.74-35.984v-8.26c-1.09 0.085-1.97 0.496-2.63 1.235-0.64 0.717-0.97 1.635-0.97 2.753 0 1.245 0.3 2.226 0.9 2.943 0.6 0.696 1.5 1.139 2.7 1.329zm3.74 10.317v8.797c1.33-0.02 2.33-0.38 3-1.07 0.67-0.701 1.01-1.745 1.01-3.138 0-1.434-0.31-2.5-0.92-3.196-0.62-0.717-1.65-1.182-3.09-1.393zm-45.66 7.727h7.84v-30.544l-8.05 2.278v-8.291l8-2.279h8.44v38.836h7.84v8.41h-24.07v-8.41z" stroke="#000" stroke-width="5" fill="none"/>
 <path id="path866" stroke-linejoin="round" d="m29.503 241.49c5.288-10.6 43.626-22.72 63.456-45.44 22.471-22.72 44.951-25.75 44.951-25.75s-1.32-16.66-17.19-28.78c-33.049-24.24 29.09-15.15 43.63 6.06 9.25-16.67 198.76-64.122 280.73 70.69 5.29-48.47 24.69 4.78 33.95 0.23 7.29 0.71 1.51-3.57 16.08-11.12-3.97 15.15-9.43 27.74-18.28 22.51-22.99-31.92-20.93-16.4-26.93 10.08 6.61 27.27-13.22 89.37-39.66 172.68l-21.15 1.52c-13.22-19.69-15.86-43.93-23.8-69.68-60.81 30.3-141.45 22.72-183.76 4.55-2.64 22.72-21.15 59.07-30.4 75.73h-19.83c-14.54-16.66-26.44-90.88-26.44-106.03-13.223 0-72.713-9.09-75.357-31.81 15.423-4.04 33.491-0.5 46.27-12.12-14.983-8.07-29.966-1.01-44.948-1.51l-1.322-31.81z" fill-rule="evenodd" stroke="#000" stroke-width="10" fill="#f1ccd3"/>
 <path id="path867" stroke-linejoin="round" d="m124.22 203.8c-0.57-14.51-34.313-4.12-34.313 14.34 0 16.48 32.583 18.47 34.313-14.34z" fill-rule="evenodd" stroke="#000" stroke-width="10" fill="#fff"/>
 <path id="path868" stroke-width="4.2453" stroke="#000" fill-rule="evenodd" d="m97.963 202.32c-6.906 2.63-12.084 22.41-2.302 24.39 9.209 3.3 16.109-25.05 2.302-24.39z"/>
 <path id="path869" stroke-width="1.1321pt" stroke="#000" fill-rule="evenodd" d="m241.02 141.52s64.12-2.27 89.24 12.12c5.95-7.58 8.59-12.88 11.9-14.39-15.21-11.37-76.68-12.88-93.2-14.39-3.31 5.3-7.94 16.66-7.94 16.66z"/>
 <path id="path870" fill-opacity=".25" stroke-width="1pt" fill-rule="evenodd" d="m116.09 129.4s28.43 10.6 38.34 24.24c20.49-5.31-22.47-22.73-38.34-24.24z"/>
 <path id="path871" d="m159.72 204.38c-41.64-15.15-93.201 71.19-33.71 100.73 81.3 40.14 123.61-65.89 33.71-100.73z" fill-rule="evenodd" filter="url(#filter3270)" stroke-width="1pt" fill="url(#radialGradient2426)"/>
 <path id="path872" d="m98.025 206.27c-4.028-1.97-13.235 9.89-3.453 19.12 2.877 1.32 9.208-18.46 3.453-19.12z" fill-opacity=".5" fill-rule="evenodd" stroke-width="1pt" fill="#fff"/>
 <path id="path873" d="m38.601 243.2c115.66-86.38 205-168.8 368.93-62.14-187.01-109.45-369.5 116.2-368.93 62.14z" fill-opacity=".5" fill-rule="evenodd" filter="url(#filter3294)" stroke-width="1pt" fill="#fff"/>
 <metadata>
  <rdf:RDF>
   <cc:Work>
    <dc:format>image/svg+xml</dc:format>
    <dc:type rdf:resource="http://purl.org/dc/dcmitype/StillImage"/>
    <cc:license rdf:resource="http://creativecommons.org/licenses/publicdomain/"/>
    <dc:publisher>
     <cc:Agent rdf:about="http://openclipart.org/">
      <dc:title>Openclipart</dc:title>
     </cc:Agent>
    </dc:publisher>
   </cc:Work>
   <cc:License rdf:about="http://creativecommons.org/licenses/publicdomain/">
    <cc:permits rdf:resource="http://creativecommons.org/ns#Reproduction"/>
    <cc:permits rdf:resource="http://creativecommons.org/ns#Distribution"/>
    <cc:permits rdf:resource="http://creativecommons.org/ns#DerivativeWorks"/>
   </cc:License>
  </rdf:RDF>
 </metadata>
</svg>
